<svg width="450" height="50" viewBox="0 0 450 50" xmlns="http://www.w3.org/2000/svg">
<defs id="SvgjsDefs4552"></defs><g id="SvgjsG4553" featurekey="symbolGroupContainer" transform="matrix(1,0,0,1,0,0)" fill="#99ddcc">    <path xmlns="http://www.w3.org/2000/svg" fill-rule="nonzero" d="             M0,0             H85             V52             H0,0             z             M4,4             v44             h77             v-44             z     "></path></g><g id="SvgjsG4554" featurekey="uHI19F-0" transform="matrix(0.5788877301237992,0,0,0.5788877301237992,13.105561349381004,-3.0736415386574976)" fill="#99ddcc"><g xmlns="http://www.w3.org/2000/svg"><path d="M23.943,30.807L5,50.001l18.942,19.192c1.728,1.751,4.53,1.751,6.258,0.002c1.729-1.75,1.73-4.587,0.002-6.338   L18.193,50.695l-3.624,2.289l15.634-15.841c0.864-0.875,1.295-2.021,1.295-3.168c0-1.147-0.433-2.295-1.297-3.17   C28.473,29.056,25.671,29.057,23.943,30.807z"></path><path d="M76.057,30.808L95,50.001L76.058,69.193c-1.728,1.751-4.53,1.751-6.258,0.002c-1.729-1.75-1.73-4.587-0.002-6.338   l12.009-12.161l3.624,2.289L69.796,37.144c-0.864-0.875-1.295-2.021-1.295-3.168c0-1.147,0.433-2.295,1.297-3.17   C71.527,29.056,74.329,29.057,76.057,30.808z"></path><path d="M60.899,32.352c-0.419-1.068-1.241-1.978-2.366-2.476c-2.249-0.997-4.857,0.028-5.825,2.288l-13.82,32.062   c-0.484,1.13-0.467,2.355-0.048,3.422c0.419,1.068,1.241,1.978,2.366,2.476c2.249,0.997,4.857-0.028,5.825-2.288l13.82-32.062   C61.335,34.644,61.318,33.419,60.899,32.352z"></path></g></g><g id="SvgjsG4555" featurekey="nameLeftFeature-0" transform="matrix(2.0007614642022835,0,0,2.0007614642022835,101.35861331467967,0.035833816271866326)" fill="#99ddcc"><path d="M6.9 5.84 c1.37334 0 2.45664 0.34 3.24998 1.02 s1.19 1.66 1.19 2.94 c0 1.24 -0.39334 2.21 -1.18 2.91 s-1.87332 1.05 -3.25998 1.05 l-3.16 0 l0 6.24 l-1.92 0 l0 -14.16 l5.08 0 z M6.33996 12.08 c1 0 1.74334 -0.183359 2.23 -0.55002 s0.73 -0.94332 0.73 -1.72998 c0 -1.52 -0.98666 -2.28 -2.96 -2.28 l-2.6 0 l0 4.56 l2.6 0 z M18.76 5.84 c1.38666 0 2.47334 0.34666 3.26 1.04 s1.18 1.66668 1.18 2.92002 c0 0.94666 -0.32334 1.77332 -0.97 2.47998 s-1.47666 1.12666 -2.49 1.26 l-0.02 0 l4.02 6.46 l-2.4 0 l-3.6 -6.24 l-2.14 0 l0 6.24 l-1.92 0 l0 -14.16 l5.08 0 z M18.20002 12.08 c1 0 1.74334 -0.183359 2.23 -0.55002 s0.73 -0.94332 0.73 -1.72998 c0 -1.52 -0.98666 -2.28 -2.96 -2.28 l-2.6 0 l0 4.56 l2.6 0 z M32.08 5.84 l6.06 14.16 l-2.24 0 l-1.42 -3.5 l-6.74 0 l-1.4 3.5 l-2.24 0 l6.24 -14.16 l1.74 0 z M28.42 14.82 l5.36 0 l-2.64 -6.5 l-0.04 0 z M44.04 5.48 c1.84 0 3.19996 0.540058 4.07996 1.620058 l-1.56 1.42 c-0.24 -0.37334 -0.58 -0.67334 -1.02 -0.9 s-0.94666 -0.34 -1.52 -0.34 c-0.82666 0 -1.49 0.20334 -1.99 0.61 s-0.75 0.93 -0.75 1.57 c0 1.06666 0.70666 1.81332 2.12 2.23998 l1.78 0.58 c1 0.32 1.76334 0.76666 2.29 1.34 s0.79 1.36 0.79 2.36 c0 1.30666 -0.46334 2.36332 -1.39 3.16998 s-2.10332 1.21 -3.52998 1.21 c-2.04 0 -3.54666 -0.65334 -4.52 -1.96 l1.58 -1.36 c0.30666 0.48 0.72666 0.85334 1.26 1.12 s1.11334 0.4 1.74 0.4 c0.78666 0 1.45332 -0.22666 1.99998 -0.68 s0.82 -1.01334 0.82 -1.68 c0 -0.49334 -0.16666 -0.90668 -0.5 -1.24002 s-0.93334 -0.63334 -1.8 -0.9 l-1.26 -0.42 c-1.26666 -0.42666 -2.15332 -0.97 -2.65998 -1.63 s-0.76 -1.51 -0.76 -2.55 c0 -1.10666 0.44666 -2.04666 1.34 -2.82 s2.04668 -1.16 3.46002 -1.16 z M57.28 5.84 l6.06 14.16 l-2.24 0 l-1.42 -3.5 l-6.74 0 l-1.4 3.5 l-2.24 0 l6.24 -14.16 l1.74 0 z M53.62 14.82 l5.36 0 l-2.64 -6.5 l-0.04 0 z M69.9 5.84 c1.50666 0 2.81338 0.31 3.92004 0.93 s1.95332 1.47 2.53998 2.55 s0.88 2.28 0.88 3.6 s-0.32666 2.52334 -0.98 3.61 s-1.56668 1.93666 -2.74002 2.55 s-2.48 0.92 -3.92 0.92 l-4.74 0 l0 -14.16 l5.04 0 z M69.30006 18.2 c1.08 0 2.07 -0.21002 2.97 -0.63002 s1.61334 -1.02334 2.14 -1.81 s0.79 -1.73332 0.79 -2.83998 c0 -1.6 -0.49666 -2.88 -1.49 -3.84 s-2.31 -1.44 -3.95 -1.44 l-2.98 0 l0 10.56 l2.52 0 z"></path></g><g id="SvgjsG4556" featurekey="inlineSymbolFeature-0" transform="matrix(0.7259073951383718,0,0,0.7259073951383718,257.37046302430815,-10.409820954751705)" fill="#99ddcc"><g xmlns="http://www.w3.org/2000/svg"><path d="M23.943,30.807L5,50.001l18.942,19.192c1.728,1.751,4.53,1.751,6.258,0.002c1.729-1.75,1.73-4.587,0.002-6.338   L18.193,50.695l-3.624,2.289l15.634-15.841c0.864-0.875,1.295-2.021,1.295-3.168c0-1.147-0.433-2.295-1.297-3.17   C28.473,29.056,25.671,29.057,23.943,30.807z"></path><path d="M76.057,30.808L95,50.001L76.058,69.193c-1.728,1.751-4.53,1.751-6.258,0.002c-1.729-1.75-1.73-4.587-0.002-6.338   l12.009-12.161l3.624,2.289L69.796,37.144c-0.864-0.875-1.295-2.021-1.295-3.168c0-1.147,0.433-2.295,1.297-3.17   C71.527,29.056,74.329,29.057,76.057,30.808z"></path><path d="M60.899,32.352c-0.419-1.068-1.241-1.978-2.366-2.476c-2.249-0.997-4.857,0.028-5.825,2.288l-13.82,32.062   c-0.484,1.13-0.467,2.355-0.048,3.422c0.419,1.068,1.241,1.978,2.366,2.476c2.249,0.997,4.857-0.028,5.825-2.288l13.82-32.062   C61.335,34.644,61.318,33.419,60.899,32.352z"></path></g></g><g id="SvgjsG4557" featurekey="nameRightFeature-0" transform="matrix(2.0007614642022835,0,0,2.0007614642022835,330.6398628028784,0.035833816271866326)" fill="#99ddcc"><path d="M8.16 5.84 l0 10.19998 c0 1.33334 -0.38666 2.38668 -1.16 3.16002 s-1.76668 1.16 -2.98002 1.16 c-1.04 0 -1.89334 -0.26666 -2.56 -0.8 s-1.09332 -1.3 -1.27998 -2.3 l1.88 -0.42 c0.10666 0.53334 0.32666 0.95334 0.66 1.26 s0.76668 0.46 1.30002 0.46 c0.74666 0 1.30332 -0.25 1.66998 -0.75 s0.55 -1.29 0.55 -2.37 l0 -9.6 l1.92 0 z M17.96 5.48 c2.10666 0 3.86336 0.69998 5.27002 2.09998 s2.11 3.18 2.11 5.34 c0 1.37334 -0.31334 2.63 -0.94 3.77 s-1.51 2.03666 -2.65 2.69 s-2.40334 0.98 -3.79 0.98 c-1.37334 0 -2.62668 -0.32334 -3.76002 -0.97 s-2.02 -1.54 -2.66 -2.68 s-0.96 -2.40334 -0.96 -3.79 c0 -2.10666 0.69 -3.87332 2.07 -5.29998 s3.15 -2.14 5.31 -2.14 z M12.62004 12.91998 c0 1.6 0.49998 2.94002 1.49998 4.02002 s2.28 1.62 3.84 1.62 c1.53334 0 2.80668 -0.53334 3.82002 -1.6 s1.52 -2.41332 1.52 -4.03998 c0 -1.61334 -0.5 -2.95668 -1.5 -4.03002 s-2.28666 -1.61 -3.86 -1.61 c-1.52 0 -2.78666 0.53334 -3.8 1.6 s-1.52 2.41332 -1.52 4.03998 z M32.16 5.48 c1.84 0 3.19996 0.540058 4.07996 1.620058 l-1.56 1.42 c-0.24 -0.37334 -0.58 -0.67334 -1.02 -0.9 s-0.94666 -0.34 -1.52 -0.34 c-0.82666 0 -1.49 0.20334 -1.99 0.61 s-0.75 0.93 -0.75 1.57 c0 1.06666 0.70666 1.81332 2.12 2.23998 l1.78 0.58 c1 0.32 1.76334 0.76666 2.29 1.34 s0.79 1.36 0.79 2.36 c0 1.30666 -0.46334 2.36332 -1.39 3.16998 s-2.10332 1.21 -3.52998 1.21 c-2.04 0 -3.54666 -0.65334 -4.52 -1.96 l1.58 -1.36 c0.30666 0.48 0.72666 0.85334 1.26 1.12 s1.11334 0.4 1.74 0.4 c0.78666 0 1.45332 -0.22666 1.99998 -0.68 s0.82 -1.01334 0.82 -1.68 c0 -0.49334 -0.16666 -0.90668 -0.5 -1.24002 s-0.93334 -0.63334 -1.8 -0.9 l-1.26 -0.42 c-1.26666 -0.42666 -2.15332 -0.97 -2.65998 -1.63 s-0.76 -1.51 -0.76 -2.55 c0 -1.10666 0.44666 -2.04666 1.34 -2.82 s2.04668 -1.16 3.46002 -1.16 z M48.36 5.84 l0 1.8 l-7.22 0 l0 4.22 l6.72 0 l0 1.8 l-6.72 0 l0 4.54 l7.58 0 l0 1.8 l-9.5 0 l0 -14.16 l9.14 0 z"></path></g>
</svg>